<svg xmlns="http://www.w3.org/2000/svg" width="1016.995" height="850" viewBox="-10 0 1016.995 850.00001"><path fill="currentColor" d="M401.338 50c222.834 0 434.16 100.319 465.724 311.554 11.536 86.518 12.865 169.724 14.454 269.799q1.563 60.972.083 121.944c-.027 1.106-.087 2.358-.083 3.32.001.553.615 1.564 1.606 1.605 1.023.043 3.68 0 3.68 0h66.981q3.212 0 3.212 6.424v35.33H806.956c-2.87.013-3.7-.293-4.031-3.16-.05-1.575-.058-2.206-.039-3.284 2.217-121.367-7.547-243.323-36.998-361.317-18.101-72.52-77.31-158.283-107.599-191.107C560.936 135.603 397.82 117.45 296.951 117.45c-2.14 1.763-1.653 5.33-1.606 8.03 3.748 211.449 11.242 633.923 11.242 634.348 0 .426.325 2.129 1.004 2.937.678.809.99 1.222 2.279 1.296s13.94.106 18.204.13c4.45.025 7.562 2.54 7.42 16.916s.32 18.967-7.183 18.87-69.363.084-104.832 0c-5.514-.013-8.418-.839-8.43-20.476-.012-16.617 2.453-17.783 8.029-18.067 9.853-.502 26.998-.264 35.329-.104.502.01.973.016 1.407.028 1.533.044 1.548.194 2.51-.677.833-.754.803-1.025.905-1.957.059-.537 0-1.16.001-1.857.04-47.036.36-445.501-.003-639.417-.002-.757-.85-1.614-1.606-1.606-73.945-2.853-147.747 2.876-221.621 3.212V90.149C40 80.42 224.794 50 401.338 50m171.836 672.891q0-56.208 75.48-56.208 73.873 0 73.873 56.208 0 56.21-73.873 56.209-75.48 0-75.48-56.209"/></svg>